Coordinates
version=1
nRows=4
nColumns=40
inDegrees=yes

Units are S.I. units (second, meters, Newtons, ...)
If the header above contains a line with 'inDegrees', this indicates whether rotational values are in degrees (yes) or radians (no).

endheader
time	pelvis_tilt	pelvis_list	pelvis_rotation	pelvis_tx	pelvis_ty	pelvis_tz	hip_flexion_r	hip_adduction_r	hip_rotation_r	knee_angle_r	knee_angle_r_beta	ankle_angle_r	subtalar_angle_r	mtp_angle_r	hip_flexion_l	hip_adduction_l	hip_rotation_l	knee_angle_l	knee_angle_l_beta	ankle_angle_l	subtalar_angle_l	mtp_angle_l	lumbar_extension	lumbar_bending	lumbar_rotation	arm_flex_r	arm_add_r	arm_rot_r	elbow_flex_r	pro_sup_r	wrist_flex_r	wrist_dev_r	arm_flex_l	arm_add_l	arm_rot_l	elbow_flex_l	pro_sup_l	wrist_flex_l	wrist_dev_l
     17.53500000000000014211	     37.23503973508388043001	     -8.60673545994780475610	    175.80131176619673283312	      0.35060909925265648646	      0.81759453645557755852	     -0.58110554046383866567	     79.55276539540645330817	     -7.07177885539399930792	      3.93725841376893326284	     48.90549347046693640095	      0.85356188337223626306	      8.32517401239768872756	      0.00000000000000000000	      0.00000000000000000000	     76.14467884150271004273	     -4.53177931095275443596	    -12.78312133794231186812	     51.13109975810936447260	      0.89240604094468467533	     12.54250804626215831661	      0.00000000000000000000	      0.00000000000000000000	    -32.39000041312085187428	     -6.19581854168944001771	     -2.95717801849085759613	     52.15684388788552183769	    -12.99309517888967668853	     38.57861986057490355506	     10.72556585162466369354	      9.60629325939181555327	      0.00000000000000000000	      0.00000000000000000000	     58.23545883538744050156	    -17.04581272129258096015	     39.12827145880698509472	     15.89721294676698271076	     85.94265512257949524155	      0.00000000000000000000	      0.00000000000000000000
     17.53999999999999914735	     37.24077746883364170571	     -8.51058984778957672290	    175.90879347655985043275	      0.35025906903463704944	      0.81953004214411218076	     -0.58089724716156754258	     79.17644814484472703953	     -7.20303318244384005453	      3.71125832008498024450	     48.35266343007722156244	      0.84391317896350248606	      8.10298342944135541188	      0.00000000000000000000	      0.00000000000000000000	     75.83096263499710687483	     -4.36511224667578190406	    -12.67360514310255936721	     50.53793995611252398703	      0.88205344940936214471	     12.27002866629686295141	      0.00000000000000000000	      0.00000000000000000000	    -32.23751032102232727539	     -6.03457244311647755808	     -2.97155766385459640944	     52.03342775367922712348	    -12.92873583507353352218	     38.14873699790819472355	     10.43816342296551269442	     11.14746064377329304307	      0.00000000000000000000	      0.00000000000000000000	     58.08372750575073695245	    -16.99265737837615830585	     39.20225222082595450956	     15.81810518617590055612	     85.83615370176700309912	      0.00000000000000000000	      0.00000000000000000000
     17.54500000000000170530	     37.20919387424023483391	     -8.52270043297797563753	    175.94174498601117306862	      0.34992820845576794175	      0.82132400536540906000	     -0.58078018864263569743	     78.83213419452816594912	     -7.27254142678212911477	      3.63399288139865683789	     47.85350118338639902049	      0.83520115425709551271	      7.93819505106348799472	      0.00000000000000000000	      0.00000000000000000000	     75.48740322579351413879	     -4.24723212430852470334	    -12.73277623878503561627	     50.00199789815263784476	      0.87269949589804785006	     12.03432656074424578208	      0.00000000000000000000	      0.00000000000000000000	    -32.09420240654468159391	     -6.01488953870063092211	     -2.95631541062810576648	     51.84887997618975674641	    -12.97287190176813531650	     38.19187615970557203582	     10.21649149066277750819	     12.69202833861950807659	      0.00000000000000000000	      0.00000000000000000000	     57.94303199143286775552	    -16.98027804180681243906	     39.60120614543116346340	     15.76546621020750116315	     85.80980181499644743326	      0.00000000000000000000	      0.00000000000000000000
     17.55000000000000071054	     36.99633193920075058259	     -8.59289958691291566595	    176.01698297705570439575	      0.34942233774544834146	      0.82361423190660176807	     -0.58063889947924818280	     78.30357558374376480970	     -7.45510114098642961977	      3.56932302275505008993	     47.33944472542882664357	      0.82622917652459604287	      7.70042530430286031873	      0.00000000000000000000	      0.00000000000000000000	     74.90962143691383801070	     -4.03396694080207840472	    -12.85983539413278542440	     49.38432074895855095065	      0.86191899593027876403	     11.75096026074700716890	      0.00000000000000000000	      0.00000000000000000000	    -32.18405924069784163066	     -6.03624000044486308525	     -3.11401887355386453038	     51.65260792273629419924	    -13.09629852380975734150	     38.91633950168647260170	     10.10821390154866961097	     15.11720103452989327764	      0.00000000000000000000	      0.00000000000000000000	     57.83143530691328493276	    -17.16549891656816839713	     40.32427270634636329305	     15.93505331803994984341	     85.75332879605397806699	      0.00000000000000000000	      0.00000000000000000000
